<svg width="50" height="50" viewBox="0 0 50 50" fill="none" xmlns="http://www.w3.org/2000/svg">
<g clip-path="url(#clip0_13_6254)">
<path d="M25.0024 47.2006L34.9076 44.6992C40.5614 40.0045 44.1626 32.9232 44.1626 25.0001C44.1626 12.779 35.5971 2.55859 24.1419 0.0145512C10.7321 0.466797 0 11.4801 0 25C0 31.9445 2.83203 38.2272 7.40352 42.7574L25.0024 47.2006Z" fill="#CBE2FF"/>
<path d="M43.644 25C43.644 33.1948 39.7005 40.4679 33.6083 45.0272L42.5958 42.7576C47.1675 38.2273 50 31.9447 50 25C50 11.1929 38.8072 0 25 0C23.9235 0 22.8627 0.0681641 21.822 0.200195C34.1286 1.76152 43.644 12.2695 43.644 25Z" fill="#BED8FB"/>
<path d="M31.213 9.46797C31.213 8.19111 30.1779 7.15606 28.9011 7.15606H20.9341C17.9955 7.15606 15.6133 9.53828 15.6133 12.4769V18.3844H34.3837V12.5606C34.3837 11.2838 33.3486 10.2487 32.0718 10.2487H31.9938C31.5626 10.2487 31.213 9.89922 31.213 9.46797Z" fill="#365E7D"/>
<path d="M32.0718 10.2487H31.9939C31.5626 10.2487 31.213 9.89912 31.213 9.46787C31.213 8.19102 30.178 7.15596 28.9011 7.15596H28.0276V18.3843H34.3836V12.5605C34.3837 11.2839 33.3486 10.2487 32.0718 10.2487Z" fill="#2B4D66"/>
<path d="M41.5084 36.3628C40.8971 35.7591 40.1411 35.2922 39.2828 35.0205L32.4575 32.8596L25.0016 32.5976L17.5426 32.8596L10.7173 35.0205C8.40835 35.7516 6.83911 37.8943 6.83911 40.3163V42.181C11.213 46.8028 17.3324 49.756 24.1421 49.9856C31.7718 48.291 38.1196 43.1911 41.5084 36.3628Z" fill="#4A80AA"/>
<path d="M43.161 42.1809V40.3162C43.161 38.6037 42.3758 37.0315 41.1 35.9985C37.4758 43.3839 30.3166 48.72 21.8279 49.799C22.8525 49.9288 23.896 49.998 24.9554 49.9999C25.9733 49.9983 26.9777 49.9394 27.9656 49.8259C33.9256 49.1216 39.2434 46.3206 43.161 42.1809Z" fill="#407093"/>
<path d="M25.5661 49.6258C27.0787 46.6228 31.0175 38.0958 29.8944 32.7694L25.0017 30.8652L20.1044 32.7695C18.9466 38.2603 23.1679 47.1521 24.5654 49.8877C24.9016 49.807 25.2353 49.7196 25.5661 49.6258Z" fill="#E4F6FF"/>
<path d="M28.1443 47.245L26.1605 39.4406H23.8395L21.8606 47.2237L24.3077 49.948C24.9289 49.8058 25.5415 49.6408 26.1446 49.4542L28.1443 47.245Z" fill="#E28086"/>
<path d="M24.3458 49.9907C24.5485 49.996 24.7515 49.9996 24.9553 50C25.1912 49.9996 25.4262 49.9955 25.6606 49.989L26.921 48.5965C25.929 48.9445 24.9083 49.2318 23.8635 49.4538L24.3458 49.9907Z" fill="#DD636E"/>
<path d="M29.1772 32.0491V27.6481H20.8198V32.0491C20.8198 34.3569 24.9985 36.8778 24.9985 36.8778C24.9985 36.8778 29.1772 34.3569 29.1772 32.0491Z" fill="#FFDDCE"/>
<path d="M34.3837 17.6092H32.7861C31.8977 17.6092 31.1774 16.889 31.1774 16.0005V15.1201C31.1774 13.9628 30.0451 13.1445 28.9463 13.5077C26.3835 14.3548 23.6163 14.355 21.0534 13.5083L21.0504 13.5073C19.9516 13.1443 18.8194 13.9626 18.8194 15.1198V16.0006C18.8194 16.8891 18.0992 17.6093 17.2107 17.6093H15.6133V20.2399C15.6133 20.9121 16.1582 21.4571 16.8305 21.4571C17.0426 21.4571 17.2151 21.6232 17.2285 21.835C17.4852 25.9041 20.8647 29.1254 24.9985 29.1254C29.1323 29.1254 32.5119 25.9041 32.7686 21.835C32.7819 21.6233 32.9545 21.4571 33.1666 21.4571C33.8388 21.4571 34.3838 20.9122 34.3838 20.2399V17.6092H34.3837Z" fill="#FFDDCE"/>
<path d="M32.7861 17.6092C31.8976 17.6092 31.1774 16.889 31.1774 16.0005V15.1201C31.1774 13.9628 30.0451 13.1445 28.9462 13.5077C28.6427 13.608 28.3362 13.6955 28.0276 13.7721V22.4607C27.9848 25.2877 26.4358 27.748 24.1482 29.0777C24.4276 29.1081 24.711 29.1252 24.9984 29.1252C29.1322 29.1252 32.5118 25.9039 32.7684 21.8348C32.7818 21.6231 32.9543 21.4569 33.1665 21.4569C33.8386 21.4569 34.3836 20.912 34.3836 20.2397V17.6091L32.7861 17.6092Z" fill="#FFCBBE"/>
<path d="M20.8199 30.8652L17.5427 33.528L20.9794 37.7773C21.3975 38.1844 22.0555 38.2094 22.5034 37.8354L25.0878 35.6765L20.8199 30.8652Z" fill="#F4FBFF"/>
<path d="M29.1789 30.8652L25.0879 35.6765L27.517 37.7534C27.962 38.1339 28.6231 38.1147 29.0454 37.7092L32.4575 33.528L29.1789 30.8652Z" fill="#F4FBFF"/>
<path d="M20.8197 30.8652L16.0095 33.2284C15.6433 33.4083 15.4963 33.8538 15.6833 34.2164L16.6257 36.0436C16.8699 36.517 16.7798 37.0939 16.4028 37.4703C16.2088 37.664 15.9986 37.8737 15.8165 38.0556C15.4905 38.381 15.3734 38.8617 15.517 39.2994C16.6548 42.7679 22.1307 48.0717 24.2031 49.9906C24.3425 49.9943 24.4821 49.9969 24.622 49.9984C23.1192 47.0753 17.7937 35.9696 20.8197 30.8652Z" fill="#365E7D"/>
<path d="M33.5957 37.4702C33.2186 37.0938 33.1286 36.5169 33.3728 36.0435L34.3152 34.2163C34.5022 33.8537 34.3551 33.4082 33.9889 33.2283L29.1788 30.8652C32.204 35.9683 26.8822 47.0692 25.3777 49.9961C25.5191 49.9937 25.6602 49.9901 25.801 49.9855C27.8777 48.0621 33.3448 42.7647 34.4815 39.2995C34.625 38.8618 34.508 38.3811 34.182 38.0557C33.9999 37.8737 33.7897 37.6639 33.5957 37.4702Z" fill="#365E7D"/>
<path d="M25.0876 35.6765L22.5427 37.8019L23.8394 39.4406H26.1604L27.4572 37.7052L25.0876 35.6765Z" fill="#DD636E"/>
</g>
<defs>
<clipPath id="clip0_13_6254">
<rect width="50" height="50" fill="white"/>
</clipPath>
</defs>
</svg>
