<svg width="50" height="50" viewBox="0 0 50 50" fill="none" xmlns="http://www.w3.org/2000/svg">
<g clip-path="url(#clip0_13_6207)">
<path d="M50 25C50 38.8073 38.8073 50 25 50C11.1927 50 0 38.8073 0 25C0 11.1927 11.1927 0 25 0C38.8073 0 50 11.1927 50 25Z" fill="#88C116"/>
<path d="M39.725 7.65915C38.7393 7.39479 14.1811 0.814434 11.2903 0.0396692C10.6677 -0.127033 10.0219 0.246044 9.85481 0.868603C9.43443 2.43835 4.59053 20.5162 1.27441 32.8911C4.57832 42.831 13.9507 50 24.9999 50C26.6113 50 28.186 49.8459 29.7126 49.5544C32.3722 39.6275 40.4819 9.36203 40.5536 9.09423C40.7207 8.47168 40.3476 7.82585 39.725 7.65915Z" fill="#D4D1DA"/>
<path d="M33.7499 3.04107H12.3182C11.4824 3.04107 10.6809 3.37333 10.09 3.96423L4.10631 9.94796C3.70386 10.35 3.47803 10.8955 3.47803 11.4643V37.7235C7.83098 45.0722 15.8392 50 24.9998 50C28.6562 50 32.1295 49.2146 35.2598 47.8039V4.55093C35.2598 3.71704 34.5838 3.04107 33.7499 3.04107Z" fill="#ECEBED"/>
<path d="M6.35355 7.70073L4.10593 9.94797C3.70386 10.35 3.47803 10.8955 3.47803 11.4643V37.7235C4.30887 39.1262 5.27361 40.4407 6.35355 41.6496V7.70073Z" fill="#D4D1DA"/>
<path d="M10.09 3.96423C10.6813 3.37333 11.4828 3.04107 12.3186 3.04107H22.4916C17.2052 1.62468 12.4635 0.354382 11.2905 0.0396692C10.6679 -0.127033 10.0221 0.246044 9.85503 0.868603C9.73982 1.29852 9.29274 2.96745 8.63623 5.41839L10.09 3.96423Z" fill="#D4D1DA"/>
<path d="M3.47816 24.667C2.71332 27.5215 1.96106 30.3284 1.27441 32.8911C1.83899 34.5898 2.58095 36.2072 3.47816 37.722V24.667Z" fill="#BCB7C6"/>
<path d="M33.9058 31.6643C33.1276 32.4425 32.2742 33.1055 31.3667 33.6536C33.0597 33.8787 34.6706 34.6516 35.9493 35.8582C35.9142 35.284 36.1046 34.7115 36.5287 34.2873C36.9529 33.8631 37.5255 33.6727 38.0996 33.7078C36.8931 32.4291 36.1202 30.8182 35.8951 29.1252C35.347 30.0327 34.6843 30.8857 33.9058 31.6643Z" fill="#D4D1DA"/>
<path d="M36.5917 34.2308C35.5663 33.3446 34.4383 32.6534 33.3145 32.2208C32.7018 32.7637 32.0495 33.2413 31.3667 33.6536C33.0597 33.8787 34.6706 34.6516 35.9493 35.8582C35.9146 35.2837 36.1046 34.7111 36.5287 34.2873C36.549 34.267 36.5707 34.2499 36.5917 34.2308Z" fill="#BCB7C6"/>
<path d="M37.6588 25.3983C35.6366 32.9445 27.8519 37.439 20.3057 35.4172C12.7595 33.395 8.265 25.6103 10.2872 18.0641C12.309 10.5175 20.0936 6.02302 27.6398 8.04519C35.1865 10.0674 39.6806 17.8516 37.6588 25.3983Z" fill="#7DA8FF"/>
<path d="M25.2057 32.5878C17.6591 30.566 13.165 22.7814 15.1868 15.2351C15.9337 12.4477 17.4672 10.0777 19.4836 8.29773C15.1299 9.76028 11.562 13.3045 10.2872 18.0637C8.265 25.6103 12.7595 33.395 20.3057 35.4172C25.0649 36.692 29.9184 35.3748 33.3619 32.3353C30.8122 33.1917 27.9927 33.3347 25.2057 32.5878Z" fill="#5085FE"/>
<path d="M27.7105 42.7586H11.7212C11.3168 42.7586 10.9888 42.4305 10.9888 42.0261C10.9888 41.6214 11.3168 41.2937 11.7212 41.2937H27.7105C28.1149 41.2937 28.4429 41.6214 28.4429 42.0261C28.4429 42.4305 28.1149 42.7586 27.7105 42.7586Z" fill="#D4D1DA"/>
<path d="M27.7105 39.8552H11.7212C11.3168 39.8552 10.9888 39.5275 10.9888 39.1228C10.9888 38.7184 11.3168 38.3903 11.7212 38.3903H27.7105C28.1149 38.3903 28.4429 38.7184 28.4429 39.1228C28.4429 39.5275 28.1149 39.8552 27.7105 39.8552Z" fill="#D4D1DA"/>
<path d="M27.7105 45.6615H11.7212C11.3168 45.6615 10.9888 45.3339 10.9888 44.9291C10.9888 44.5248 11.3168 44.1967 11.7212 44.1967H27.7105C28.1149 44.1967 28.4429 44.5248 28.4429 44.9291C28.4429 45.3339 28.1149 45.6615 27.7105 45.6615Z" fill="#D4D1DA"/>
<path d="M36.4541 34.2125C35.637 35.0296 35.637 36.3541 36.4541 37.1708L41.7707 42.4877C42.5878 43.3044 43.9123 43.3044 44.729 42.4877C45.5461 41.6706 45.5461 40.3461 44.729 39.529L39.4124 34.2125C38.5953 33.3958 37.2709 33.3958 36.4541 34.2125Z" fill="#FF5252"/>
<path d="M43.4064 41.3792L38.0899 36.0626C37.4265 35.3992 37.3018 34.4009 37.716 33.6117C37.2552 33.6597 36.807 33.8596 36.4541 34.2125C35.637 35.0296 35.637 36.3541 36.4541 37.1708L41.7707 42.4877C42.5878 43.3044 43.9123 43.3044 44.729 42.4873C44.8827 42.334 45.0075 42.1623 45.1032 41.98C44.4978 42.0429 43.8703 41.843 43.4064 41.3792Z" fill="#E74242"/>
<path d="M36.4541 34.2125C35.637 35.0296 35.637 36.3541 36.4541 37.1708L37.2449 37.9616L40.2032 35.0033L39.4124 34.2125C38.5953 33.3958 37.2709 33.3958 36.4541 34.2125Z" fill="#E74242"/>
<path d="M37.2449 37.962L38.6171 36.5898L38.0899 36.0626C37.4265 35.3992 37.3018 34.4009 37.716 33.6121C37.2239 33.6632 36.7753 33.8913 36.4541 34.2125C35.6332 35.0334 35.6408 36.3579 36.4541 37.1712L37.2449 37.962Z" fill="#CE3232"/>
<path d="M35.3886 21.73C35.3886 28.0407 30.2727 33.1566 23.9617 33.1566C17.651 33.1566 12.5352 28.0407 12.5352 21.73C12.5352 15.4194 17.651 10.3035 23.9617 10.3035C30.2727 10.3035 35.3886 15.4194 35.3886 21.73Z" fill="#5085FE"/>
<path d="M33.8564 16.016C30.7013 10.5511 23.7128 8.67843 18.2478 11.834C12.7825 14.9895 10.9103 21.9776 14.0654 27.4429C17.2209 32.9079 24.2091 34.7801 29.6744 31.625C35.1393 28.4695 37.012 21.4813 33.8564 16.016Z" fill="#5085FE"/>
<path d="M26.5127 32.8709C26.0767 32.7972 25.6407 32.7045 25.2054 32.5878C17.6588 30.566 13.1647 22.7814 15.1865 15.2351C15.3059 14.7892 15.4478 14.3555 15.6061 13.932C12.2648 17.5098 11.4908 22.9835 14.0658 27.4433C16.6365 31.8954 21.7505 33.963 26.5127 32.8709Z" fill="#3C78EF"/>
<path d="M31.867 27.7298C31.867 27.7298 28.0096 26.5919 27.8639 26.5488C27.6697 27.0935 27.1849 28.4519 26.8614 29.3583C26.755 29.657 26.3899 29.768 26.1351 29.5788L25.0265 28.7567H22.9117L22.9029 28.7502L22.9055 28.7567L21.797 29.5788C21.5426 29.768 21.1775 29.657 21.0707 29.3583L20.0682 26.5488C19.8542 26.6121 16.0544 27.7298 16.0544 27.7298C15.7244 27.853 15.2235 28.1086 14.8359 28.6072C19.4151 34.6741 28.5036 34.6687 33.0813 28.6152C32.5602 27.9526 31.867 27.7298 31.867 27.7298Z" fill="#F6E6CB"/>
<path d="M14.8359 28.6072C15.1457 29.0176 15.4825 29.4064 15.8438 29.771L15.9292 29.2263C16.1455 28.1418 16.8512 27.5997 17.3796 27.3399C16.6483 27.5551 16.0547 27.7294 16.0547 27.7294C15.7244 27.853 15.2239 28.1086 14.8359 28.6072Z" fill="#EDD4B0"/>
<path d="M18.3648 16.3559V15.5403C18.3648 15.1878 18.8096 15.1607 18.8096 15.1607L18.8092 15.16C21.7725 15.0425 25.1352 13.8069 26.455 13.2965C26.7934 13.1653 27.1756 13.2145 27.5029 13.4693L29.3294 14.9792C29.3294 14.9792 29.5743 15.1985 29.5743 15.6105V16.3811C30.0657 16.3383 30.6253 16.497 30.9373 16.7725V14.4497C30.9373 10.6075 27.8116 7.48215 23.9694 7.48215C20.1272 7.48215 17.0015 10.6075 17.0015 14.4497V16.7633C17.3131 16.4844 17.8724 16.3204 18.3648 16.3559Z" fill="#8C4F25"/>
<path d="M19.5216 15.1112V14.4497C19.5216 11.0378 21.9866 8.19091 25.2295 7.5962C24.8206 7.52143 24.3998 7.48176 23.9695 7.48176C20.1277 7.48176 17.002 10.6075 17.002 14.4497V16.7633C17.3132 16.4844 17.8725 16.3204 18.3646 16.3559V15.5403C18.3646 15.1878 18.8094 15.1607 18.8094 15.1607L18.809 15.16C19.0443 15.1504 19.2824 15.1337 19.5216 15.1112Z" fill="#773C15"/>
<path d="M18.3083 16.0229C17.3783 15.9523 16.5547 16.6351 16.5547 17.4683C16.5547 18.2972 17.3741 18.9846 18.3083 18.9133V16.0229Z" fill="#F59D6B"/>
<path d="M29.6309 16.05V18.8866C30.5624 18.9732 31.3841 18.2919 31.3841 17.4683C31.3845 16.6408 30.5578 15.9637 29.6309 16.05Z" fill="#F59D6B"/>
<path d="M16.7286 16.8251C16.618 17.0197 16.5547 17.2382 16.5547 17.4683C16.5547 18.2972 17.3741 18.9846 18.3083 18.9133V17.627C17.6327 17.6784 17.0174 17.3336 16.7286 16.8251Z" fill="#F28B51"/>
<path d="M29.6309 17.6002V18.8866C30.5624 18.9732 31.3841 18.2919 31.3841 17.4683C31.3841 17.2379 31.32 17.0189 31.2075 16.8251C30.9168 17.3264 30.3022 17.6628 29.6309 17.6002Z" fill="#F28B51"/>
<path d="M26.3731 25.5402L25.0269 28.7567L26.1354 29.5788C26.3902 29.7676 26.7553 29.657 26.8617 29.3583L27.8642 26.5488L26.3731 25.5402Z" fill="#EDD4B0"/>
<path d="M24.2406 24.5857C23.2771 24.6307 22.3615 24.4308 21.5498 24.0429V25.5402C21.689 25.869 21.0451 24.3488 22.912 28.7567H25.0272L26.3731 25.5402C26.3731 25.1408 26.3731 24.543 26.3731 24.0639C25.7196 24.3671 24.9994 24.5502 24.2406 24.5857Z" fill="#F59D6B"/>
<path d="M23.2626 26.6582C22.9684 25.9636 22.809 25.2197 22.7914 24.4663C22.3577 24.3732 21.9415 24.2302 21.5498 24.0429V25.5402C21.689 25.869 21.0451 24.3488 22.912 28.7567H24.1521C22.933 25.8808 23.3533 26.873 23.2626 26.6582Z" fill="#F28B51"/>
<path d="M22.9119 28.7567L22.371 29.1534L22.3706 29.1538L23.1881 30.5603H24.7193L25.5433 29.1397L25.0268 28.7567C23.7584 28.7567 24.2104 28.7567 22.9119 28.7567Z" fill="#E74242"/>
<path d="M25.0979 33.1005L24.7191 30.5603C24.1789 30.5603 23.7231 30.5603 23.1879 30.5603L22.8037 33.0986C23.543 33.173 24.3098 33.1783 25.0979 33.1005Z" fill="#E74242"/>
<path d="M29.4424 14.8102L27.503 13.2999C27.1757 13.0451 26.7934 12.9959 26.4551 13.1275C25.1352 13.6375 21.66 14.8731 18.6964 14.991L18.6967 14.9918C18.6967 14.9918 18.252 15.0188 18.252 15.3713V18.9621C18.252 22.2385 20.9676 24.9073 24.2406 24.7547C27.2726 24.6132 29.6873 22.1107 29.6873 19.0433V15.4411C29.6873 15.0291 29.4424 14.8102 29.4424 14.8102Z" fill="#F9AE85"/>
<path d="M19.5203 18.9621V14.9319C19.2426 14.9597 18.9676 14.9803 18.6964 14.991L18.6967 14.9918C18.6967 14.9918 18.252 15.0188 18.252 15.3713V18.9621C18.252 22.2385 20.968 24.9077 24.2406 24.7547C24.3642 24.749 24.4867 24.7391 24.608 24.7257C21.7519 24.4034 19.5203 21.9326 19.5203 18.9621Z" fill="#F59D6B"/>
<path d="M22.9119 28.7567L22.371 29.1534L22.3706 29.1538L23.1881 30.5603H24.7193C23.7111 29.7436 24.1521 28.7567 24.1521 28.7567C23.8541 28.7567 23.7317 28.7567 22.9119 28.7567Z" fill="#CE3232"/>
<path d="M25.8478 26.7952L25.0269 28.7567L26.1354 29.5788C26.3902 29.768 26.7553 29.657 26.8617 29.3583L27.4515 27.7058C26.7564 28.2177 25.7642 27.6722 25.8478 26.7952Z" fill="#E0C096"/>
<path d="M21.5497 25.5402L22.9062 28.7567L21.7977 29.5788C21.5428 29.7676 21.1778 29.657 21.0714 29.3583L20.0688 26.5488L21.5497 25.5402Z" fill="#E0C096"/>
<path d="M15.5637 2.34375C15.5637 1.8547 15.9398 1.45416 16.4182 1.41372C13.8902 0.736233 11.9775 0.223919 11.2905 0.0396692C10.6679 -0.127033 10.0221 0.246044 9.85503 0.868603C9.73982 1.29852 9.29274 2.96745 8.63623 5.41839L10.0904 3.96423C10.6813 3.37333 11.4828 3.04107 12.3186 3.04107H15.8784C15.6858 2.87017 15.5637 2.62146 15.5637 2.34375Z" fill="#BCB7C6"/>
<path d="M9.50296 10.5762C10.3369 10.5762 11.0128 9.90028 11.0128 9.06639V3.32527C10.6725 3.48014 10.359 3.69491 10.0897 3.96423L4.10593 9.94796C3.92282 10.1311 3.77863 10.3451 3.67334 10.5762H9.50296Z" fill="#D4D1DA"/>
<path d="M7.39839 6.65588L4.10593 9.94797C3.92282 10.1311 3.77863 10.3451 3.67334 10.5762H9.50334C9.52013 10.5762 9.53653 10.574 9.55331 10.5736C7.56891 10.4988 6.42221 8.33053 7.39839 6.65588Z" fill="#BCB7C6"/>
</g>
<defs>
<clipPath id="clip0_13_6207">
<rect width="50" height="50" fill="white"/>
</clipPath>
</defs>
</svg>
