<svg width="36" height="36" viewBox="0 0 36 36" fill="none" xmlns="http://www.w3.org/2000/svg">
<path d="M27.3331 24.6447H8.66647C8.48607 24.6446 8.31077 24.5848 8.16792 24.4745C8.02507 24.3641 7.92269 24.2096 7.87677 24.0349C7.83084 23.8602 7.84396 23.6752 7.91406 23.5088C7.98416 23.3423 8.10731 23.2038 8.26429 23.1148C8.78892 22.8177 9.23646 22.4012 9.57082 21.8991C9.90518 21.3969 10.117 20.8231 10.1892 20.2239L10.1829 16.8173C10.2488 15.2605 10.7176 13.7476 11.5433 12.4268C12.369 11.106 13.5232 10.0227 14.8929 9.28314C15.0007 8.6365 15.3084 8.03999 15.7724 7.57752C16.3726 7.00414 17.1703 6.68423 17.9998 6.68423C18.8293 6.68423 19.627 7.00414 20.2272 7.57752C20.6912 8.03999 20.9989 8.6365 21.1067 9.28314C22.4706 10.0197 23.6209 11.097 24.4461 12.4104C25.2712 13.7238 25.7429 15.2286 25.8156 16.7785L25.8167 20.322C25.9049 20.9025 26.1234 21.4553 26.4557 21.939C26.788 22.4228 27.2255 22.8248 27.7353 23.1148C27.8923 23.2038 28.0154 23.3423 28.0856 23.5088C28.1557 23.6752 28.1688 23.8602 28.1228 24.0349C28.0769 24.2096 27.9745 24.3641 27.8317 24.4745C27.6888 24.5848 27.5135 24.6446 27.3331 24.6447ZM10.7879 23.0087H25.2117C25.1633 22.9425 25.1161 22.8752 25.0704 22.8068C24.595 22.0908 24.2932 21.2735 24.1892 20.4201L24.1829 16.8173C24.1132 15.49 23.686 14.2064 22.9468 13.1025C22.2075 11.9986 21.1837 11.1157 19.9839 10.5472C19.844 10.481 19.7258 10.3764 19.643 10.2455C19.5602 10.1146 19.5162 9.96286 19.5162 9.80793C19.515 9.40547 19.3554 9.01972 19.0719 8.73438C18.7813 8.46172 18.398 8.30999 17.9998 8.30999C17.6016 8.30999 17.2183 8.46172 16.9277 8.73438C16.6442 9.01972 16.4846 9.40547 16.4834 9.80793C16.4834 9.96286 16.4394 10.1146 16.3566 10.2455C16.2738 10.3764 16.1556 10.481 16.0157 10.5472C14.8099 11.1183 13.782 12.0072 13.0421 13.1186C12.3022 14.2299 11.8782 15.5219 11.8156 16.8561L11.8167 20.322C11.7246 21.2092 11.4203 22.0611 10.9297 22.8057C10.8842 22.8752 10.8369 22.9425 10.7879 23.0087Z" fill="#69778A"/>
<path d="M17.9998 29.3176C16.855 29.3173 15.7571 28.8618 14.9476 28.0512C14.138 27.2406 13.6831 26.1413 13.6829 24.9949V23.8267C13.6829 23.7192 13.704 23.6129 13.7451 23.5136C13.7861 23.4144 13.8463 23.3242 13.9222 23.2482C13.998 23.1723 14.0881 23.112 14.1872 23.0709C14.2863 23.0298 14.3925 23.0087 14.4998 23.0087C14.6071 23.0087 14.7133 23.0298 14.8124 23.0709C14.9115 23.112 15.0016 23.1723 15.0774 23.2482C15.1533 23.3242 15.2135 23.4144 15.2545 23.5136C15.2956 23.6129 15.3167 23.7192 15.3167 23.8267V24.9949C15.3158 25.3478 15.3847 25.6974 15.5196 26.0234C15.6544 26.3494 15.8525 26.6455 16.1023 26.8944C16.6164 27.3771 17.2948 27.6457 17.9995 27.6457C18.7043 27.6457 19.3826 27.3771 19.8968 26.8944C20.1468 26.6456 20.345 26.3496 20.4799 26.0235C20.6149 25.6975 20.6838 25.3478 20.6829 24.9949V23.8267C20.6829 23.6097 20.769 23.4016 20.9222 23.2482C21.0754 23.0948 21.2831 23.0087 21.4998 23.0087C21.7165 23.0087 21.9242 23.0948 22.0774 23.2482C22.2306 23.4016 22.3167 23.6097 22.3167 23.8267V24.9949C22.3162 26.1412 21.8612 27.2404 21.0518 28.0509C20.2423 28.8615 19.1446 29.3171 17.9998 29.3176Z" fill="#69778A"/>
</svg>
