<svg width="44" height="44" viewBox="0 0 44 44" fill="none" xmlns="http://www.w3.org/2000/svg">
<path d="M44 44H0V0H44V44ZM26.3318 14.4056C24.3166 14.4078 22.3474 15.0084 20.674 16.1312C19.0005 17.254 17.6982 18.8485 16.932 20.7124C16.1659 22.5763 15.9705 24.6258 16.3707 26.6009C16.7708 28.576 17.7484 30.3878 19.1796 31.8065C20.6107 33.2253 22.4309 34.1872 24.4094 34.5702C26.3879 34.9531 28.4356 34.74 30.2928 33.9577C32.15 33.1755 33.7331 31.8593 34.8413 30.1762C35.9496 28.4931 36.5331 26.5188 36.5178 24.5036C36.512 23.1717 36.244 21.854 35.729 20.6258C35.214 19.3975 34.4621 18.2827 33.5162 17.345C32.5703 16.4073 31.449 15.6651 30.2163 15.1607C28.9836 14.6564 27.6637 14.3998 26.3318 14.4056ZM13.0702 34.7028V14.487H9.0926V34.7028H13.0702ZM20.2818 11.2772H32.3818V9.3874H20.2818V11.2772Z" fill="white"/>
<path d="M26.3306 14.4057C28.3462 14.3991 30.3183 14.9914 31.9968 16.1073C33.6753 17.2233 34.9845 18.8126 35.7585 20.6736C36.5324 22.5347 36.7362 24.5838 36.3439 26.5608C35.9517 28.5379 34.981 30.3539 33.5552 31.7785C32.1293 33.2032 30.3124 34.1722 28.335 34.5628C26.3576 34.9533 24.3088 34.7478 22.4484 33.9722C20.5879 33.1967 18.9998 31.886 17.8853 30.2066C16.7708 28.5271 16.1803 26.5545 16.1886 24.5389C16.1967 21.8523 17.2681 19.2783 19.1686 17.3795C21.0691 15.4807 23.644 14.4115 26.3306 14.4057ZM26.4054 30.6659C27.6125 30.6522 28.7885 30.2806 29.7842 29.5981C30.78 28.9156 31.5508 27.9529 31.999 26.8319C32.4472 25.711 32.5526 24.4822 32.3019 23.3013C32.0511 22.1204 31.4556 21.0405 30.5906 20.1983C29.7256 19.3562 28.6301 18.7897 27.443 18.5707C26.2558 18.3516 25.0303 18.4899 23.9217 18.9679C22.8132 19.4459 21.8714 20.2422 21.2158 21.2558C20.5601 22.2695 20.2201 23.455 20.2388 24.6621C20.2608 26.2747 20.9218 27.8126 22.0768 28.9383C23.2317 30.0639 24.7861 30.6852 26.3988 30.6659H26.4054Z" fill="black"/>
<path d="M13.0709 34.7026H9.09326V14.4868H13.0709V34.7026Z" fill="black"/>
<path d="M20.2812 11.2771V9.38733H32.3812V11.2771H20.2812Z" fill="black"/>
<path d="M26.401 30.6657C25.1936 30.677 24.0101 30.3297 23.0003 29.6676C21.9905 29.0056 21.2 28.0588 20.7288 26.947C20.2577 25.8353 20.1272 24.6087 20.3539 23.4227C20.5806 22.2367 21.1542 21.1447 22.0021 20.2851C22.85 19.4255 23.9341 18.8369 25.1168 18.5939C26.2996 18.351 27.5278 18.4646 28.6459 18.9204C29.764 19.3762 30.7217 20.1536 31.3975 21.1542C32.0734 22.1548 32.4369 23.3335 32.4422 24.5409C32.4481 26.1527 31.8162 27.7013 30.6844 28.8488C29.5525 29.9963 28.0127 30.6495 26.401 30.6657Z" fill="white"/>
</svg>
