<svg width="36" height="36" viewBox="0 0 36 36" fill="none" xmlns="http://www.w3.org/2000/svg">
<path d="M14.5003 16.4836H9.83366C9.30777 16.483 8.80359 16.2738 8.43173 15.9019C8.05986 15.5301 7.85069 15.0259 7.8501 14.5V9.83333C7.85069 9.30744 8.05986 8.80325 8.43173 8.43139C8.80359 8.05953 9.30777 7.85035 9.83366 7.84976H14.5003C15.0262 7.85035 15.5304 8.05953 15.9023 8.43139C16.2741 8.80325 16.4833 9.30744 16.4839 9.83333V14.5C16.4833 15.0259 16.2741 15.5301 15.9023 15.9019C15.5304 16.2738 15.0262 16.483 14.5003 16.4836ZM9.83366 9.48356C9.74094 9.48368 9.65204 9.52056 9.58647 9.58613C9.5209 9.6517 9.48401 9.7406 9.4839 9.83333V14.5C9.48401 14.5927 9.5209 14.6816 9.58647 14.7472C9.65204 14.8128 9.74094 14.8496 9.83366 14.8498H14.5003C14.5931 14.8496 14.682 14.8128 14.7475 14.7472C14.8131 14.6816 14.85 14.5927 14.8501 14.5V9.83333C14.85 9.7406 14.8131 9.6517 14.7475 9.58613C14.682 9.52056 14.5931 9.48368 14.5003 9.48356H9.83366Z" fill="#69778A"/>
<path d="M26.167 16.4836H21.5003C20.9744 16.483 20.4703 16.2738 20.0984 15.9019C19.7265 15.5301 19.5174 15.0259 19.5168 14.5V9.83333C19.5174 9.30744 19.7265 8.80325 20.0984 8.43139C20.4703 8.05953 20.9744 7.85035 21.5003 7.84976H26.167C26.6929 7.85035 27.1971 8.05953 27.5689 8.43139C27.9408 8.80325 28.15 9.30744 28.1506 9.83333V14.5C28.15 15.0259 27.9408 15.5301 27.5689 15.9019C27.1971 16.2738 26.6929 16.483 26.167 16.4836ZM21.5003 9.48356C21.4076 9.48368 21.3187 9.52056 21.2531 9.58613C21.1876 9.6517 21.1507 9.7406 21.1506 9.83333V14.5C21.1507 14.5927 21.1876 14.6816 21.2531 14.7472C21.3187 14.8128 21.4076 14.8496 21.5003 14.8498H26.167C26.2597 14.8496 26.3486 14.8128 26.4142 14.7472C26.4798 14.6816 26.5167 14.5927 26.5168 14.5V9.83333C26.5167 9.7406 26.4798 9.6517 26.4142 9.58613C26.3486 9.52056 26.2597 9.48368 26.167 9.48356H21.5003Z" fill="#69778A"/>
<path d="M14.5003 28.1502H9.83366C9.30777 28.1496 8.80359 27.9405 8.43173 27.5686C8.05986 27.1967 7.85069 26.6926 7.8501 26.1667V21.5C7.85069 20.9741 8.05986 20.4699 8.43173 20.0981C8.80359 19.7262 9.30777 19.517 9.83366 19.5164H14.5003C15.0262 19.517 15.5304 19.7262 15.9023 20.0981C16.2741 20.4699 16.4833 20.9741 16.4839 21.5V26.1667C16.4833 26.6926 16.2741 27.1967 15.9023 27.5686C15.5304 27.9405 15.0262 28.1496 14.5003 28.1502ZM9.83366 21.1502C9.74094 21.1503 9.65204 21.1872 9.58647 21.2528C9.5209 21.3184 9.48401 21.4073 9.4839 21.5V26.1667C9.48401 26.2594 9.5209 26.3483 9.58647 26.4139C9.65204 26.4794 9.74094 26.5163 9.83366 26.5164H14.5003C14.5931 26.5163 14.682 26.4794 14.7475 26.4139C14.8131 26.3483 14.85 26.2594 14.8501 26.1667V21.5C14.85 21.4073 14.8131 21.3184 14.7475 21.2528C14.682 21.1872 14.5931 21.1503 14.5003 21.1502H9.83366Z" fill="#69778A"/>
<path d="M26.167 28.1502H21.5003C20.9744 28.1496 20.4703 27.9405 20.0984 27.5686C19.7265 27.1967 19.5174 26.6926 19.5168 26.1667V21.5C19.5174 20.9741 19.7265 20.4699 20.0984 20.0981C20.4703 19.7262 20.9744 19.517 21.5003 19.5164H26.167C26.6929 19.517 27.1971 19.7262 27.5689 20.0981C27.9408 20.4699 28.15 20.9741 28.1506 21.5V26.1667C28.15 26.6926 27.9408 27.1967 27.5689 27.5686C27.1971 27.9405 26.6929 28.1496 26.167 28.1502ZM21.5003 21.1502C21.4076 21.1503 21.3187 21.1872 21.2531 21.2528C21.1876 21.3184 21.1507 21.4073 21.1506 21.5V26.1667C21.1507 26.2594 21.1876 26.3483 21.2531 26.4139C21.3187 26.4794 21.4076 26.5163 21.5003 26.5164H26.167C26.2597 26.5163 26.3486 26.4794 26.4142 26.4139C26.4798 26.3483 26.5167 26.2594 26.5168 26.1667V21.5C26.5167 21.4073 26.4798 21.3184 26.4142 21.2528C26.3486 21.1872 26.2597 21.1503 26.167 21.1502H21.5003Z" fill="#69778A"/>
</svg>
