<svg width="56" height="56" viewBox="0 0 56 56" fill="none" xmlns="http://www.w3.org/2000/svg">
<g clip-path="url(#clip0_32_1308)">
<g clip-path="url(#clip1_32_1308)">
<path d="M35.1401 28.94C35.1801 28.64 35.2001 28.33 35.2001 28C35.2001 27.68 35.1801 27.36 35.1301 27.06L37.1601 25.48C37.3401 25.34 37.3901 25.07 37.2801 24.87L35.3601 21.55C35.2401 21.33 34.9901 21.26 34.7701 21.33L32.3801 22.29C31.8801 21.91 31.3501 21.59 30.7601 21.35L30.4001 18.81C30.3601 18.57 30.1601 18.4 29.9201 18.4H26.0801C25.8401 18.4 25.6501 18.57 25.6101 18.81L25.2501 21.35C24.6601 21.59 24.1201 21.92 23.6301 22.29L21.2401 21.33C21.0201 21.25 20.7701 21.33 20.6501 21.55L18.7401 24.87C18.6201 25.08 18.6601 25.34 18.8601 25.48L20.8901 27.06C20.8401 27.36 20.8001 27.69 20.8001 28C20.8001 28.31 20.8201 28.64 20.8701 28.94L18.8401 30.52C18.6601 30.66 18.6101 30.93 18.7201 31.13L20.6401 34.45C20.7601 34.67 21.0101 34.74 21.2301 34.67L23.6201 33.71C24.1201 34.09 24.6501 34.41 25.2401 34.65L25.6001 37.19C25.6501 37.43 25.8401 37.6 26.0801 37.6H29.9201C30.1601 37.6 30.3601 37.43 30.3901 37.19L30.7501 34.65C31.3401 34.41 31.8801 34.09 32.3701 33.71L34.7601 34.67C34.9801 34.75 35.2301 34.67 35.3501 34.45L37.2701 31.13C37.3901 30.91 37.3401 30.66 37.1501 30.52L35.1401 28.94ZM28.0001 31.6C26.0201 31.6 24.4001 29.98 24.4001 28C24.4001 26.02 26.0201 24.4 28.0001 24.4C29.9801 24.4 31.6001 26.02 31.6001 28C31.6001 29.98 29.9801 31.6 28.0001 31.6Z" fill="#938F96"/>
</g>
</g>
<defs>
<clipPath id="clip0_32_1308">
<rect width="56" height="56" rx="16" fill="white"/>
</clipPath>
<clipPath id="clip1_32_1308">
<rect width="24" height="24" fill="white" transform="translate(16 16)"/>
</clipPath>
</defs>
</svg>
